<mxfile host="app.diagrams.net" modified="2023-10-12T15:38:30.212Z" agent="Mozilla/5.0 (Windows NT 10.0; Win64; x64) AppleWebKit/537.36 (KHTML, like Gecko) Chrome/117.0.0.0 Safari/537.36" etag="PJ1UfCs4jL__Ioah8LzC" version="22.0.4" type="device">
  <diagram name="Page-1" id="2a216829-ef6e-dabb-86c1-c78162f3ba2b">
    <mxGraphModel dx="2200" dy="1290" grid="1" gridSize="10" guides="1" tooltips="1" connect="1" arrows="1" fold="1" page="1" pageScale="1" pageWidth="850" pageHeight="1100" background="none" math="0" shadow="0">
      <root>
        <mxCell id="0" />
        <mxCell id="1" parent="0" />
        <mxCell id="Nw8e_-uAzRaYwNXOCAyZ-13" value="" style="rounded=0;whiteSpace=wrap;html=1;fillStyle=hatch;fillColor=#006600;strokeColor=#00FF00;gradientColor=none;opacity=90;" vertex="1" parent="1">
          <mxGeometry x="118" y="146" width="1002" height="159" as="geometry" />
        </mxCell>
        <mxCell id="Nw8e_-uAzRaYwNXOCAyZ-11" value="" style="rounded=0;whiteSpace=wrap;html=1;fillStyle=hatch;fillColor=#006600;strokeColor=#00FF00;gradientColor=none;opacity=90;" vertex="1" parent="1">
          <mxGeometry x="119" y="320" width="1001" height="159" as="geometry" />
        </mxCell>
        <mxCell id="Nw8e_-uAzRaYwNXOCAyZ-2" value="" style="rounded=0;whiteSpace=wrap;html=1;fillStyle=hatch;fillColor=#006600;strokeColor=#00FF00;gradientColor=none;opacity=90;" vertex="1" parent="1">
          <mxGeometry x="119" y="500" width="1001" height="340" as="geometry" />
        </mxCell>
        <mxCell id="7a84cebc1def654-1" value="Обращение сотрудника &lt;br&gt;за справкой" style="shape=mxgraph.bpmn.shape;html=1;verticalLabelPosition=bottom;labelBackgroundColor=#ffffff;verticalAlign=top;perimeter=ellipsePerimeter;outline=standard;symbol=general;" parent="1" vertex="1">
          <mxGeometry x="168.5" y="563.88" width="63" height="66.25" as="geometry" />
        </mxCell>
        <mxCell id="7a84cebc1def654-2" value="&lt;font style=&quot;font-size: 18px;&quot;&gt;Проверка данных&lt;/font&gt;" style="shape=ext;rounded=1;html=1;whiteSpace=wrap;" parent="1" vertex="1">
          <mxGeometry x="310" y="557.01" width="120" height="80" as="geometry" />
        </mxCell>
        <mxCell id="7a84cebc1def654-3" value="&lt;font style=&quot;font-size: 18px;&quot;&gt;Подготовка&lt;br&gt;справки&lt;/font&gt;" style="shape=ext;rounded=1;html=1;whiteSpace=wrap;" parent="1" vertex="1">
          <mxGeometry x="500" y="557" width="120" height="80" as="geometry" />
        </mxCell>
        <mxCell id="7a84cebc1def654-8" value="&lt;font style=&quot;font-size: 18px;&quot;&gt;Подпись&lt;br&gt;справки&lt;/font&gt;" style="shape=ext;rounded=1;html=1;whiteSpace=wrap;" parent="1" vertex="1">
          <mxGeometry x="620" y="185.5" width="120" height="80" as="geometry" />
        </mxCell>
        <mxCell id="7a84cebc1def654-26" value="&lt;font style=&quot;font-size: 18px;&quot;&gt;Выдача&lt;br&gt;справки&lt;/font&gt;" style="shape=mxgraph.bpmn.shape;html=1;verticalLabelPosition=bottom;labelBackgroundColor=#ffffff;verticalAlign=top;perimeter=ellipsePerimeter;outline=end;symbol=general;" parent="1" vertex="1">
          <mxGeometry x="975" y="564.01" width="70" height="67.99" as="geometry" />
        </mxCell>
        <mxCell id="7a84cebc1def654-36" style="edgeStyle=orthogonalEdgeStyle;rounded=0;html=1;jettySize=auto;orthogonalLoop=1;" parent="1" source="7a84cebc1def654-1" target="7a84cebc1def654-2" edge="1">
          <mxGeometry relative="1" as="geometry" />
        </mxCell>
        <mxCell id="7a84cebc1def654-39" style="edgeStyle=orthogonalEdgeStyle;rounded=0;html=1;jettySize=auto;orthogonalLoop=1;" parent="1" source="7a84cebc1def654-2" target="7a84cebc1def654-3" edge="1">
          <mxGeometry relative="1" as="geometry" />
        </mxCell>
        <mxCell id="7a84cebc1def654-47" style="edgeStyle=orthogonalEdgeStyle;rounded=0;html=1;jettySize=auto;orthogonalLoop=1;entryX=0;entryY=0.5;entryDx=0;entryDy=0;" parent="1" source="7a84cebc1def654-3" target="7a84cebc1def654-8" edge="1">
          <mxGeometry relative="1" as="geometry">
            <mxPoint x="830.0588235294117" y="324" as="targetPoint" />
          </mxGeometry>
        </mxCell>
        <mxCell id="7a84cebc1def654-49" style="edgeStyle=orthogonalEdgeStyle;rounded=0;html=1;jettySize=auto;orthogonalLoop=1;entryX=0.5;entryY=0;entryDx=0;entryDy=0;exitX=1;exitY=0.5;exitDx=0;exitDy=0;" parent="1" source="7a84cebc1def654-8" target="Nw8e_-uAzRaYwNXOCAyZ-15" edge="1">
          <mxGeometry relative="1" as="geometry">
            <mxPoint x="875" y="405" as="targetPoint" />
          </mxGeometry>
        </mxCell>
        <mxCell id="7a84cebc1def654-58" style="edgeStyle=orthogonalEdgeStyle;rounded=0;html=1;jettySize=auto;orthogonalLoop=1;entryX=0;entryY=0.5;entryDx=0;entryDy=0;exitX=1;exitY=0.5;exitDx=0;exitDy=0;" parent="1" source="Nw8e_-uAzRaYwNXOCAyZ-15" target="7a84cebc1def654-26" edge="1">
          <mxGeometry relative="1" as="geometry">
            <mxPoint x="1012" y="592.0588235294119" as="sourcePoint" />
            <mxPoint x="663.9999999999998" y="592" as="targetPoint" />
          </mxGeometry>
        </mxCell>
        <mxCell id="7a84cebc1def654-59" style="edgeStyle=orthogonalEdgeStyle;rounded=0;html=1;jettySize=auto;orthogonalLoop=1;" parent="1" target="7a84cebc1def654-20" edge="1">
          <mxGeometry relative="1" as="geometry">
            <mxPoint x="859" y="711.9411764705881" as="sourcePoint" />
          </mxGeometry>
        </mxCell>
        <mxCell id="7a84cebc1def654-60" style="edgeStyle=orthogonalEdgeStyle;rounded=0;html=1;jettySize=auto;orthogonalLoop=1;endArrow=none;endFill=0;" parent="1" target="7a84cebc1def654-22" edge="1">
          <mxGeometry relative="1" as="geometry">
            <mxPoint x="799" y="791.9999999999998" as="sourcePoint" />
          </mxGeometry>
        </mxCell>
        <mxCell id="7a84cebc1def654-61" style="edgeStyle=orthogonalEdgeStyle;rounded=0;html=1;jettySize=auto;orthogonalLoop=1;endArrow=none;endFill=0;" parent="1" target="7a84cebc1def654-20" edge="1">
          <mxGeometry relative="1" as="geometry">
            <mxPoint x="944" y="791.9999999999998" as="sourcePoint" />
          </mxGeometry>
        </mxCell>
        <mxCell id="7a84cebc1def654-63" style="edgeStyle=orthogonalEdgeStyle;rounded=0;html=1;jettySize=auto;orthogonalLoop=1;endArrow=none;endFill=0;" parent="1" target="7a84cebc1def654-18" edge="1">
          <mxGeometry relative="1" as="geometry">
            <mxPoint x="1114" y="791.9999999999998" as="sourcePoint" />
          </mxGeometry>
        </mxCell>
        <mxCell id="7a84cebc1def654-64" style="edgeStyle=orthogonalEdgeStyle;rounded=0;html=1;jettySize=auto;orthogonalLoop=1;" parent="1" target="7a84cebc1def654-18" edge="1">
          <mxGeometry relative="1" as="geometry">
            <mxPoint x="1004" y="711.9999999999998" as="sourcePoint" />
          </mxGeometry>
        </mxCell>
        <mxCell id="Nw8e_-uAzRaYwNXOCAyZ-1" value="" style="shape=message;whiteSpace=wrap;html=1;" vertex="1" parent="1">
          <mxGeometry x="180" y="582" width="40" height="30" as="geometry" />
        </mxCell>
        <mxCell id="Nw8e_-uAzRaYwNXOCAyZ-4" value="&lt;font style=&quot;font-size: 18px;&quot;&gt;Отдел кадров&amp;nbsp;&lt;/font&gt;" style="rounded=0;whiteSpace=wrap;html=1;fillStyle=hatch;fillColor=none;strokeColor=#00FF00;gradientColor=none;opacity=90;" vertex="1" parent="1">
          <mxGeometry x="40" y="500" width="80" height="340" as="geometry" />
        </mxCell>
        <mxCell id="Nw8e_-uAzRaYwNXOCAyZ-7" value="" style="edgeStyle=orthogonalEdgeStyle;rounded=0;orthogonalLoop=1;jettySize=auto;html=1;dashed=1;dashPattern=1 1;strokeWidth=2;" edge="1" parent="1" source="Nw8e_-uAzRaYwNXOCAyZ-6" target="7a84cebc1def654-2">
          <mxGeometry relative="1" as="geometry" />
        </mxCell>
        <mxCell id="Nw8e_-uAzRaYwNXOCAyZ-6" value="&lt;font style=&quot;font-size: 18px;&quot;&gt;Кадровый архив&lt;/font&gt;" style="shape=cylinder3;whiteSpace=wrap;html=1;boundedLbl=1;backgroundOutline=1;size=14;" vertex="1" parent="1">
          <mxGeometry x="316.5" y="674" width="107" height="114" as="geometry" />
        </mxCell>
        <mxCell id="Nw8e_-uAzRaYwNXOCAyZ-8" value="&lt;span style=&quot;font-size: 18px;&quot;&gt;Запрос&lt;br&gt;&lt;/span&gt;&lt;font style=&quot;font-size: 18px;&quot;&gt;информации&lt;/font&gt;" style="whiteSpace=wrap;html=1;shape=mxgraph.basic.document" vertex="1" parent="1">
          <mxGeometry x="310" y="344.5" width="120" height="110" as="geometry" />
        </mxCell>
        <mxCell id="Nw8e_-uAzRaYwNXOCAyZ-10" value="" style="endArrow=classic;html=1;rounded=0;entryX=0.5;entryY=0;entryDx=0;entryDy=0;exitX=0.5;exitY=1;exitDx=0;exitDy=0;exitPerimeter=0;dashed=1;dashPattern=1 1;strokeWidth=2;" edge="1" parent="1" source="Nw8e_-uAzRaYwNXOCAyZ-8" target="7a84cebc1def654-2">
          <mxGeometry width="50" height="50" relative="1" as="geometry">
            <mxPoint x="180" y="434" as="sourcePoint" />
            <mxPoint x="350" y="460" as="targetPoint" />
          </mxGeometry>
        </mxCell>
        <mxCell id="Nw8e_-uAzRaYwNXOCAyZ-12" value="&lt;font style=&quot;font-size: 18px;&quot;&gt;Отделы&lt;br&gt;(другие)&lt;br&gt;&lt;/font&gt;" style="rounded=0;whiteSpace=wrap;html=1;fillStyle=hatch;fillColor=none;strokeColor=#00FF00;gradientColor=none;opacity=90;" vertex="1" parent="1">
          <mxGeometry x="40" y="320" width="80" height="159" as="geometry" />
        </mxCell>
        <mxCell id="Nw8e_-uAzRaYwNXOCAyZ-14" value="&lt;font style=&quot;font-size: 14px;&quot;&gt;Ру&lt;br&gt;ко&lt;br&gt;во&lt;br&gt;ди&lt;br&gt;те&lt;br&gt;ль&lt;/font&gt;" style="rounded=0;whiteSpace=wrap;html=1;fillStyle=hatch;fillColor=none;strokeColor=#00FF00;gradientColor=none;opacity=90;" vertex="1" parent="1">
          <mxGeometry x="39" y="146" width="80" height="159" as="geometry" />
        </mxCell>
        <mxCell id="Nw8e_-uAzRaYwNXOCAyZ-15" value="&lt;font style=&quot;font-size: 18px;&quot;&gt;Регистрация&lt;br&gt;справки&lt;br&gt;в журнале&lt;/font&gt;" style="shape=ext;rounded=1;html=1;whiteSpace=wrap;" vertex="1" parent="1">
          <mxGeometry x="740" y="557.01" width="120" height="80" as="geometry" />
        </mxCell>
        <mxCell id="Nw8e_-uAzRaYwNXOCAyZ-16" value="" style="shape=message;whiteSpace=wrap;html=1;" vertex="1" parent="1">
          <mxGeometry x="990" y="582" width="40" height="30" as="geometry" />
        </mxCell>
      </root>
    </mxGraphModel>
  </diagram>
</mxfile>
